<svg height="512pt" viewBox="0 -78 512 512" width="512pt" xmlns="http://www.w3.org/2000/svg"><path d="m483.332031 7.5h-155.164062c-11.691407 0-21.167969 9.476562-21.167969 21.167969v3.222656h23.089844c11.707031 0 21.195312 9.488281 21.195312 21.195313v194.761718c0 11.707032-9.488281 21.195313-21.195312 21.195313h-23.089844v57.625c0 11.6875 9.476562 21.167969 21.167969 21.167969h155.167969c11.6875 0 21.164062-9.480469 21.164062-21.167969v-298c0-11.691407-9.476562-21.167969-21.167969-21.167969zm0 0" fill="#45748c"/><path d="m483.332031 7.5h-9.167969v288.832031c0 11.691407-9.476562 21.167969-21.164062 21.167969-22.21875 0-123.46875 0-146 0v9.167969c0 11.6875 9.476562 21.167969 21.164062 21.167969h155.167969c11.691407 0 21.167969-9.480469 21.167969-21.167969v-298c0-11.691407-9.476562-21.167969-21.167969-21.167969zm0 0" fill="#3a6175"/><path d="m330.089844 31.890625c-14.863282 0-286.457032 0-301.394532 0-11.707031 0-21.195312 9.488281-21.195312 21.195313v194.761718c0 11.707032 9.488281 21.195313 21.195312 21.195313h301.394532c11.707031 0 21.195312-9.488281 21.195312-21.195313v-194.761718c0-11.707032-9.492187-21.195313-21.195312-21.195313zm0 0" fill="#ccdfed"/><path d="m330.089844 31.890625h-10.191406v184.574219c0 11.707031-9.488282 21.195312-21.195313 21.195312h-291.203125v10.1875c0 11.707032 9.488281 21.195313 21.195312 21.195313h301.394532c11.707031 0 21.195312-9.488281 21.195312-21.195313v-194.761718c0-11.707032-9.492187-21.195313-21.195312-21.195313zm0 0" fill="#b2c2cf"/><path d="m38.390625 63.5h282v150h-282zm0 0" fill="#8dffff"/><path d="m292.390625 63.5v77.472656c0 24.589844-19.933594 44.527344-44.527344 44.527344h-209.472656v28h282v-150zm0 0" fill="#7de3e3"/><path d="m109.921875 269.042969h138.941406v39.761719h-138.941406zm0 0" fill="#9dbdcb"/><path d="m214.667969 269.042969h34.195312v39.761719h-34.195312zm0 0" fill="#86a1ad"/><path d="m274.445312 347.835938h-190.109374c-4.753907 0-8.609376-3.859376-8.609376-8.613282 0-16.796875 13.617188-30.417968 30.414063-30.417968h146.5c29.421875 0 39.355469 39.03125 21.804687 39.03125zm0 0" fill="#9dbdcb"/><path d="m252.640625 308.804688h-37.332031c29.464844 0 39.257812 39.027343 21.804687 39.027343h37.332031c17.5.003907 7.574219-39.027343-21.804687-39.027343zm0 0" fill="#86a1ad"/><path d="m443.273438 271.167969c0 20.722656-16.800782 37.523437-37.523438 37.523437s-37.523438-16.800781-37.523438-37.523437c0-20.726563 16.800782-37.523438 37.523438-37.523438s37.523438 16.796875 37.523438 37.523438zm0 0" fill="#ff6d3a"/><path d="m420.53125 236.671875c13.308594 31.019531-18.261719 62.582031-49.277344 49.273437 5.738282 13.375 19.019532 22.746094 34.496094 22.746094 20.722656 0 37.523438-16.800781 37.523438-37.523437 0-15.476563-9.371094-28.761719-22.742188-34.496094zm0 0" fill="#db5e32"/><path d="m351.285156 158.070312h129.800782v24.667969h-129.800782zm0 0" fill="#ff6d3a"/><path d="m327.890625 213.5v-150c0-4.144531-3.355469-7.5-7.5-7.5h-282c-4.140625 0-7.5 3.355469-7.5 7.5v150c0 4.144531 3.359375 7.5 7.5 7.5h282c4.144531 0 7.5-3.355469 7.5-7.5zm-15-7.5h-267v-135h267zm0 0"/><path d="m171.890625 237.167969v6c0 4.140625 3.359375 7.5 7.5 7.5 4.144531 0 7.5-3.359375 7.5-7.5v-6c0-4.144531-3.355469-7.5-7.5-7.5-4.140625 0-7.5 3.355469-7.5 7.5zm0 0"/><path d="m450.773438 271.167969c0-24.828125-20.199219-45.023438-45.023438-45.023438s-45.023438 20.195313-45.023438 45.023438c0 24.824219 20.199219 45.023437 45.023438 45.023437s45.023438-20.199218 45.023438-45.023437zm-75.046876 0c0-16.558594 13.46875-30.023438 30.023438-30.023438s30.023438 13.46875 30.023438 30.023438c0 16.554687-13.46875 30.023437-30.023438 30.023437s-30.023438-13.46875-30.023438-30.023437zm0 0"/><path d="m361.25 107.167969c0 4.140625 3.355469 7.5 7.5 7.5h74c4.144531 0 7.5-3.359375 7.5-7.5 0-4.144531-3.355469-7.5-7.5-7.5h-74c-4.144531 0-7.5 3.355469-7.5 7.5zm0 0"/><path d="m425.417969 71c4.140625 0 7.5-3.355469 7.5-7.5s-3.359375-7.5-7.5-7.5h-39.335938c-4.140625 0-7.5 3.355469-7.5 7.5s3.359375 7.5 7.5 7.5zm0 0"/><path d="m483.332031 0h-155.164062c-14.355469 0-26.277344 10.605469-28.347657 24.390625h-184.820312c-4.144531 0-7.5 3.355469-7.5 7.5 0 4.140625 3.355469 7.5 7.5 7.5h215.089844c7.550781 0 13.691406 6.140625 13.691406 13.695313v194.761718c0 7.550782-6.140625 13.695313-13.691406 13.695313-13.382813 0-283.886719 0-301.394532 0-7.550781 0-13.695312-6.144531-13.695312-13.695313v-194.761718c0-7.554688 6.144531-13.695313 13.695312-13.695313h58.304688c4.144531 0 7.5-3.359375 7.5-7.5 0-4.144531-3.355469-7.5-7.5-7.5h-58.304688c-15.824218 0-28.695312 12.871094-28.695312 28.695313v194.761718c0 15.824219 12.871094 28.695313 28.695312 28.695313h73.726563v24.945312c-19.167969 1.875-34.195313 18.082031-34.195313 37.734375 0 8.882813 7.226563 16.109375 16.109376 16.109375h190.109374c8.886719 0 16.113282-7.226562 16.113282-16.109375 0-19.652344-15.03125-35.859375-34.195313-37.734375v-24.945312h43.136719v50.125c0 15.804687 12.859375 28.667969 28.667969 28.667969h43.914062c4.144531 0 7.5-3.359376 7.5-7.5 0-4.144532-3.355469-7.5-7.5-7.5h-43.914062c-7.535157 0-13.667969-6.132813-13.667969-13.667969v-50.125h15.589844c15.820312 0 28.691406-12.871094 28.691406-28.695313v-57.609375h122.300781c4.144531 0 7.5-3.355469 7.5-7.5v-24.664062c0-4.144531-3.355469-7.5-7.5-7.5h-122.300781v-97.488281c0-15.820313-12.871094-28.695313-28.691406-28.695313h-14.902344c1.796875-5.445313 6.9375-9.386719 12.980469-9.386719h155.164062c7.535157-.003906 13.667969 6.128906 13.667969 13.664063v298c0 7.535156-6.132812 13.667969-13.667969 13.667969h-83.25c-4.140625 0-7.5 3.355468-7.5 7.5 0 4.140624 3.359375 7.5 7.5 7.5h83.25c15.808594 0 28.667969-12.863282 28.667969-28.667969v-298c0-15.808594-12.859375-28.667969-28.667969-28.667969zm-207.773437 339.222656c0 .613282-.5 1.109375-1.113282 1.109375-200.925781-.523437-191.21875 1.09375-191.21875-1.109375 0-12.636718 10.28125-22.917968 22.914063-22.917968h146.503906c12.632813 0 22.914063 10.28125 22.914063 22.917968zm-34.195313-37.917968h-123.941406v-24.761719h123.941406zm232.21875-135.734376v9.667969h-114.800781v-9.667969zm0 0"/></svg>