<svg height="512" viewBox="0 0 36 58" width="512" xmlns="http://www.w3.org/2000/svg"><g id="033---Peace-Hand" fill="none" transform="translate(-1)"><g fill="#fdd7ad"><path id="Shape" d="m34 31.92v8.08c-.0749083 2.7806605-.7575495 5.511225-2 8-4.37 7.44-4 6.62-4 9 0 .5522847-.4477153 1-1 1h-17c-.55228475 0-1-.4477153-1-1 .11285486-1.0586574-.15671876-2.1227638-.76-3l-5-6.9c-1.99994471-2.7521605-2.69090778-6.2435347-1.89-9.55 1-4.11 4.56-7.79 7.93-10.31 1.0253603-.7870992 2.2774965-1.2220149 3.57-1.24h8.15c.5522847 0 1 .4477153 1 1v1c0 2.7614237-2.2385763 5-5 5h-3c-1.1045695 0-2 .8954305-2 2s.8954305 2 2 2c1.3280439-.1681145 2.6763002.0542782 3.88.64 1.7950165.8787992 3.9639376.2084053 4.95-1.53l.81-1.29c-1.0501111 1.6936477-.5522672 3.9161651 1.12 5 1.7549789 1.030733 4.0127058.4551464 5.06-1.29z"/><path id="Shape" d="m1.77 36.09-.08.2c.01987121-.069188.04667365-.1361941.08-.2z"/><path id="Shape" d="m24.3 4c0 .56-1 6.06-3.94 22h-7.51c-1.2936628-.0007268-2.5529137.4166851-3.59 1.19-3 2.26-6.11 5.39-7.48 8.89 0-.1 0 0 2.15-5.39.70447729-1.7574214.89183926-3.6796163.54-5.54l-3.39-18.3c-.31163864-1.42446445.17655365-2.90565717 1.27409944-3.86566283 1.09754578-.96000565 2.63053765-1.24671024 4.00084985-.74825054s2.36081719 1.70310216 2.58505071 3.14391337l3.57 16.23c0 .2761424.2238576.5.5.5s.5-.2238576.5-.5l2.89-18.4c.4462048-1.96919178 2.2900267-3.29709563 4.2991186-3.09618643 2.009092.20090919 3.5534513 1.86763115 3.6008814 3.88618643z"/></g><path id="Shape" d="m21.91 24-1.14 2h-8.42c-1.0808087.0063641-2.1315346.356606-3 1-3 2.26-6.21 5.6-7.57 9.09 0-.1 0 0 2.15-5.39.27222117-.6792319.46678973-1.3870589.58-2.11 1.13153629-1.1569755 2.35193314-2.2235689 3.65-3.19 1.21127053-.9022434 2.6796462-1.3928701 4.19-1.4z" fill="#f9c795"/><path id="Shape" d="m17.88 37.64c-2.42-1.35-4 0-5.29-1.23-.5684616-.5718399-.7379389-1.4291108-.4298346-2.1742425s1.0335232-1.2323721 1.8398346-1.2357575h4.31c-.66 1.87-2.26 3.73-.43 4.64z" fill="#f9c795"/><path id="Shape" d="m35 29.23c0 1.38-.13 1.24-5.18 9.33-.6612205 1.1425067-1.8905436 1.836007-3.2103587 1.8110656s-2.5220589-.7643926-3.1396413-1.9310656c-.4897401.461966-1.0544516.8373132-1.67 1.11-1.0037627-1.8016703-.9540246-4.0054499.13-5.76l4.64-7.4c.7696964-1.2267328 1.9610363-2.1300174 3.35-2.54.2676003.6337662.4134749 1.3122526.43 2 1.0819656-.3572958 2.2697713-.1719484 3.191444.4979986.9216728.6699471 1.4645246 1.7425831 1.458556 2.8820014z" fill="#fdd7ad"/><path id="Shape" d="m35 29.23c0 1.38-.13 1.24-5.18 9.33-.6612205 1.1425067-1.8905436 1.836007-3.2103587 1.8110656s-2.5220589-.7643926-3.1396413-1.9310656c-.5688556-1.1557715-.5046663-2.522626.17-3.62l4.06-6.48c.71-1.13 1.2-2.07 2.65-2.52 1.0870273-.3590697 2.2805918-.1703023 3.2037615.5066889.9231698.6769911 1.4619673 1.7586225 1.4462385 2.9033111z" fill="#fdd7ad"/><path id="Shape" d="m29.92 23.85c-.7868937-1.8608176-2.5181792-3.1509352-4.5263056-3.3729079-2.0081265-.2219726-3.9793846.6588762-5.1536944 2.3029079l-2.24 2.78 3.51.43c.17.12.12.44.12 1.59 0 2.93-2.2 5.61-4.61 5.61h-.82l-1.65 1.74c.3 2.09.25 3.14 2 4.27 1.5755172.9826677 3.5375948 1.1139731 5.23.35 1.0006553 1.7250839 2.8379485 2.7934626 4.832179 2.8098929 1.9942306.0164303 3.8488778-1.0215307 4.877821-2.7298929l4.61-7.33c1.2662946-1.9498367 1.1961015-4.4792993-.1763779-6.3559094-1.3724794-1.8766102-3.7617421-2.7099958-6.0036221-2.0940906zm4.5 7.4c-.62 1 .09-.19-4.6 7.31-.6612205 1.1425067-1.8905436 1.836007-3.2103587 1.8110656s-2.5220589-.7643926-3.1396413-1.9310656c.77-.7.59-.42 5.93-9 .6938238-1.0582593 1.0431375-2.3053089 1-3.57 1.4324331-.4010154 2.9639981.1202626 3.8543748 1.3118612s.9561891 2.8081044.1656252 4.0681388z" fill="#f9c795"/><path id="Shape" d="m28.36 26.12c-.0163329.7858913-.2443409 1.5528273-.66 2.22l-4.06 6.48c-.83 1.31-1.25 2.22-2.49 2.82-1.1105139.5810906-2.4455134.5316462-3.51-.13-.88-.56-.82-.89-1-1.91l.39-.41c3.51 0 6.61-3.51 6.61-7.61v-1.29c.0478703-1.1133554-.7335028-2.0911391-1.83-2.29.8910347-1.3270274 2.5538245-1.9025866 4.0745718-1.4103753 1.5207474.4922114 2.5309435 1.9329203 2.4754282 3.5303753z" fill="#fdd7ad"/><path id="Shape" d="m16.25 33c.9174134.0281479 1.8322982-.1107791 2.7-.41-.8435925.3876648-1.7793538.5297619-2.7.41z" fill="#fdd7ad"/><path id="Shape" d="m21 26h-.47l.01-.01h1.02z" fill="#fdd7ad"/><path id="Shape" d="m21.81 24c1.1045769.1850929 1.9005122 1.1607555 1.86 2.28v1.29c0 4.1-2.94 7.83-6.45 7.83l-1.15-.4c-.1110387-.6711268-.0490865-1.3594845.18-2 .9206089.1165289 1.8554834-.0254335 2.7-.41h.09c1.8089594-.8083711 2.9699315-2.6086623 2.96-4.59v-1c0-.16 0-1-1.47-1 .1-.11.96-1.61 1.28-2z" fill="#f9c795"/></g></svg>